<?xml version="1.0" encoding="utf-8"?>
<!-- Generator: Adobe Illustrator 19.0.0, SVG Export Plug-In . SVG Version: 6.00 Build 0)  -->
<svg version="1.1" id="Layer_1" xmlns="http://www.w3.org/2000/svg" xmlns:xlink="http://www.w3.org/1999/xlink" x="0px" y="0px"
	 viewBox="-566 384 146.8 34" style="enable-background:new -566 384 146.8 34;" xml:space="preserve">
<style type="text/css">
	.st0{display:none;fill:#2D2D2D;}
	.st1{fill:none;}
	.st2{fill:#FFFFFF;}
	.st3{fill:#C8DEF6;}
</style>
<rect id="XMLID_55_" x="-657.2" y="368" class="st0" width="294.6" height="122"/>
<g id="XMLID_2_">
	<rect id="XMLID_121_" x="-566" y="393.4" class="st1" width="406.8" height="214.9"/>
	<path id="XMLID_96_" class="st2" d="M-565.7,393.8h10.3v3.5h-3.4v15.2h-3.6v-15.2h-3.3V393.8z"/>
	<path id="XMLID_98_" class="st2" d="M-552.7,393.8h3.8c2.1,0,3.5,0.2,4.4,0.6s1.6,1,2.1,1.8c0.5,0.9,0.8,1.9,0.8,3
		c0,1.2-0.3,2.3-0.9,3.1c-0.6,0.8-1.5,1.4-2.7,1.9l4.4,8.3h-3.9l-4.2-7.9h-0.3v7.9h-3.6L-552.7,393.8L-552.7,393.8z M-549.2,401.1
		h1.2c1.1,0,1.9-0.1,2.3-0.4c0.4-0.3,0.6-0.8,0.6-1.5c0-0.4-0.1-0.8-0.3-1.1c-0.2-0.3-0.5-0.5-0.8-0.6c-0.4-0.1-1-0.2-1.9-0.2h-1
		v3.8H-549.2z"/>
	<path id="XMLID_101_" class="st2" d="M-532.2,393.8h3.6l7.2,18.7h-3.7l-1.5-3.8h-7.6l-1.5,3.8h-3.7L-532.2,393.8z M-530.3,398.8
		l-2.5,6.4h5L-530.3,398.8z"/>
	<path id="XMLID_104_" class="st2" d="M-518.6,393.8h4.2c2.7,0,4.7,0.3,6.1,1c1.3,0.7,2.4,1.8,3.3,3.3s1.3,3.3,1.3,5.3
		c0,1.4-0.2,2.8-0.7,4c-0.5,1.2-1.1,2.2-2,3c-0.8,0.8-1.8,1.3-2.7,1.7s-2.7,0.5-5.1,0.5h-4.3L-518.6,393.8L-518.6,393.8z
		 M-515.1,397.2V409h1.7c1.6,0,2.8-0.2,3.5-0.6c0.7-0.4,1.3-1,1.8-1.9s0.7-2,0.7-3.3c0-2-0.6-3.5-1.7-4.6c-1-1-2.6-1.5-4.8-1.5h-1.2
		V397.2z"/>
	<path id="XMLID_107_" class="st2" d="M-500.4,393.8h10.2v3.5h-6.7v3.4h6.7v3.4h-6.7v4.9h6.7v3.5h-10.2V393.8z"/>
	<path id="XMLID_109_" class="st3" d="M-481.2,393.8h3.6l7.2,18.7h-3.7l-1.5-3.8h-7.6l-1.5,3.8h-3.7L-481.2,393.8z M-479.4,398.8
		l-2.5,6.4h5L-479.4,398.8z"/>
	<path id="XMLID_112_" class="st3" d="M-467.7,393.8h3.6v15.3h5.2v3.4h-8.7v-18.7H-467.7z"/>
	<path id="XMLID_114_" class="st3" d="M-456.2,393.8h10.2v3.5h-6.7v3.4h6.7v3.4h-6.7v4.9h6.7v3.5h-10.2V393.8z"/>
	<path id="XMLID_116_" class="st3" d="M-442.5,393.8h3.8c2.1,0,3.5,0.2,4.4,0.6c0.9,0.4,1.6,1,2.1,1.8c0.5,0.9,0.8,1.9,0.8,3
		c0,1.2-0.3,2.3-0.9,3.1c-0.6,0.8-1.5,1.4-2.7,1.9l4.4,8.3h-3.9l-4.2-7.9h-0.3v7.9h-3.6L-442.5,393.8L-442.5,393.8z M-438.9,401.1
		h1.1c1.1,0,1.9-0.1,2.3-0.4c0.4-0.3,0.6-0.8,0.6-1.5c0-0.4-0.1-0.8-0.3-1.1c-0.2-0.3-0.5-0.5-0.8-0.6c-0.4-0.1-1-0.2-1.9-0.2h-1
		C-438.9,397.3-438.9,401.1-438.9,401.1z"/>
	<path id="XMLID_119_" class="st3" d="M-429.5,393.8h10.3v3.5h-3.4v15.2h-3.6v-15.2h-3.3V393.8z"/>
</g>
<g id="XMLID_1_">
</g>
<g id="XMLID_95_">
</g>
<g id="XMLID_122_">
</g>
<g id="XMLID_123_">
</g>
<g id="XMLID_124_">
</g>
<g id="XMLID_125_">
</g>
</svg>
