<?xml version="1.0" encoding="utf-8"?>
<!-- Generator: Adobe Illustrator 19.0.0, SVG Export Plug-In . SVG Version: 6.00 Build 0)  -->
<svg version="1.1" id="Layer_1" xmlns="http://www.w3.org/2000/svg" xmlns:xlink="http://www.w3.org/1999/xlink" x="0px" y="0px"
	 viewBox="0 0 146.8 34" style="enable-background:new 0 0 146.8 34;" xml:space="preserve">
<style type="text/css">
	.st0{display:none;fill:#2D2D2D;}
	.st1{fill:none;}
	.st2{fill:#FFFFFF;}
	.st3{fill:#2D2D2D;}
</style>
<rect id="XMLID_55_" x="-91.2" y="-16" class="st0" width="294.6" height="122"/>
<g id="XMLID_2_">
	<rect id="XMLID_121_" y="9.4" class="st1" width="406.8" height="214.9"/>
	<path id="XMLID_96_" class="st2" d="M0.3,9.8h10.3v3.5H7.2v15.2H3.6V13.3H0.3V9.8z"/>
	<path id="XMLID_98_" class="st2" d="M13.3,9.8h3.8c2.1,0,3.5,0.2,4.4,0.6c0.9,0.4,1.6,1,2.1,1.8c0.5,0.9,0.8,1.9,0.8,3
		c0,1.2-0.3,2.3-0.9,3.1s-1.5,1.4-2.7,1.9l4.4,8.3h-3.9l-4.2-7.9h-0.3v7.9h-3.6V9.8z M16.8,17.1H18c1.1,0,1.9-0.1,2.3-0.4
		c0.4-0.3,0.6-0.8,0.6-1.5c0-0.4-0.1-0.8-0.3-1.1c-0.2-0.3-0.5-0.5-0.8-0.6c-0.4-0.1-1-0.2-1.9-0.2h-1V17.1z"/>
	<path id="XMLID_101_" class="st2" d="M33.8,9.8h3.6l7.2,18.7h-3.7l-1.5-3.8h-7.6l-1.5,3.8h-3.7L33.8,9.8z M35.7,14.8l-2.5,6.4h5
		L35.7,14.8z"/>
	<path id="XMLID_104_" class="st2" d="M47.4,9.8h4.2c2.7,0,4.7,0.3,6.1,1c1.3,0.7,2.4,1.8,3.3,3.3s1.3,3.3,1.3,5.3
		c0,1.4-0.2,2.8-0.7,4s-1.1,2.2-2,3c-0.8,0.8-1.8,1.3-2.7,1.7s-2.7,0.5-5.1,0.5h-4.3V9.8z M50.9,13.2V25h1.7c1.6,0,2.8-0.2,3.5-0.6
		s1.3-1,1.8-1.9c0.5-0.9,0.7-2,0.7-3.3c0-2-0.6-3.5-1.7-4.6c-1-1-2.6-1.5-4.8-1.5H50.9z"/>
	<path id="XMLID_107_" class="st2" d="M65.6,9.8h10.2v3.5h-6.7v3.4h6.7v3.4h-6.7V25h6.7v3.5H65.6V9.8z"/>
	<path id="XMLID_109_" class="st3" d="M84.8,9.8h3.6l7.2,18.7h-3.7l-1.5-3.8h-7.6l-1.5,3.8h-3.7L84.8,9.8z M86.6,14.8l-2.5,6.4h5
		L86.6,14.8z"/>
	<path id="XMLID_112_" class="st3" d="M98.3,9.8h3.6v15.3h5.2v3.4h-8.7V9.8z"/>
	<path id="XMLID_114_" class="st3" d="M109.8,9.8H120v3.5h-6.7v3.4h6.7v3.4h-6.7V25h6.7v3.5h-10.2V9.8z"/>
	<path id="XMLID_116_" class="st3" d="M123.5,9.8h3.8c2.1,0,3.5,0.2,4.4,0.6c0.9,0.4,1.6,1,2.1,1.8c0.5,0.9,0.8,1.9,0.8,3
		c0,1.2-0.3,2.3-0.9,3.1s-1.5,1.4-2.7,1.9l4.4,8.3h-3.9l-4.2-7.9h-0.3v7.9h-3.6V9.8z M127.1,17.1h1.1c1.1,0,1.9-0.1,2.3-0.4
		c0.4-0.3,0.6-0.8,0.6-1.5c0-0.4-0.1-0.8-0.3-1.1c-0.2-0.3-0.5-0.5-0.8-0.6c-0.4-0.1-1-0.2-1.9-0.2h-1V17.1z"/>
	<path id="XMLID_119_" class="st3" d="M136.5,9.8h10.3v3.5h-3.4v15.2h-3.6V13.3h-3.3V9.8z"/>
</g>
<g id="XMLID_1_">
</g>
<g id="XMLID_95_">
</g>
<g id="XMLID_122_">
</g>
<g id="XMLID_123_">
</g>
<g id="XMLID_124_">
</g>
<g id="XMLID_125_">
</g>
</svg>
